<svg xmlns="http://www.w3.org/2000/svg" xmlns:xlink="http://www.w3.org/1999/xlink" width="32" height="32" viewBox="0 0 32 32"><defs><path id="q18ka" d="M545.667 1470.005c8.656 0 15.698 7.042 15.698 15.699 0 8.656-7.042 15.699-15.698 15.699-8.657 0-15.7-7.043-15.7-15.7 0-8.656 7.043-15.698 15.7-15.698zm0 30.141c7.963 0 14.442-6.479 14.442-14.442 0-7.964-6.479-14.444-14.442-14.444-7.964 0-14.443 6.48-14.443 14.444 0 7.963 6.479 14.442 14.443 14.442z"/><path id="q18kb" d="M543.34 1491.685c-.265 0-.53-.1-.731-.302l-4.315-4.314a1.032 1.032 0 1 1 1.46-1.46l3.585 3.583 8.59-8.586a1.033 1.033 0 0 1 1.46 1.46l-9.32 9.317a1.03 1.03 0 0 1-.73.302z"/></defs><g><g transform="translate(-530 -1470)"><use fill="#ccc" xlink:href="#q18ka"/></g><g transform="translate(-530 -1470)"><use fill="#ccc" xlink:href="#q18kb"/></g></g></svg>